<svg width="698" height="91" viewBox="0 0 698 91" fill="none" xmlns="http://www.w3.org/2000/svg">
<path d="M18.8728 78.5894C18.8728 81.7008 19.5128 83.8386 20.8063 85.0165C22.0931 86.1943 24.333 86.7798 27.5193 86.7798V89.1696C20.5408 88.87 15.9588 88.7134 13.7597 88.7134C11.5606 88.7134 6.97184 88.8632 0.00012207 89.1696V86.7798C3.18641 86.7798 5.41954 86.1943 6.71312 85.0165C7.99989 83.8386 8.64668 81.7008 8.64668 78.5894V42.9887C8.64668 39.5029 7.99989 36.9634 6.71312 35.3702C5.42635 33.7771 3.18641 32.9805 0.00012207 32.9805V30.5908C2.42388 30.8155 4.77956 30.9312 7.05354 30.9312C11.833 30.9312 15.775 30.4002 18.8796 29.3381V78.5826L18.8728 78.5894ZM18.0762 4.32431C19.5128 5.76768 20.2344 7.46976 20.2344 9.44417C20.2344 11.4186 19.5128 13.1207 18.0762 14.564C16.6328 16.0074 14.9308 16.7223 12.9564 16.7223C10.9819 16.7223 9.27986 16.0006 7.8365 14.564C6.39313 13.1275 5.67826 11.4186 5.67826 9.44417C5.67826 7.46976 6.39994 5.76768 7.8365 4.32431C9.27305 2.88776 10.9819 2.16608 12.9564 2.16608C14.9308 2.16608 16.6328 2.88776 18.0762 4.32431Z" fill="#BDF7FA"/>
<path d="M106.33 33.3263C107.766 34.8446 108.794 36.7373 109.4 39.0113C110.006 41.2852 110.312 44.3558 110.312 48.2229V78.588C110.312 81.6994 110.959 83.8372 112.246 85.0151C113.533 86.1929 115.773 86.7784 118.959 86.7784V89.1681C111.981 88.8686 107.433 88.712 105.308 88.712C103.184 88.712 98.9358 88.8618 92.57 89.1681V86.7784C95.375 86.7784 97.329 86.1929 98.4252 85.0151C99.5213 83.8372 100.073 81.6994 100.073 78.588V45.7174C100.073 41.4691 99.4668 38.2283 98.255 35.9952C97.0431 33.762 94.5785 32.6387 90.8611 32.6387C87.7497 32.6387 84.9855 33.551 82.5618 35.3688C80.1312 37.1866 78.2589 39.6717 76.9313 42.8171C75.6037 45.9625 74.9433 49.4688 74.9433 53.3359V78.588C74.9433 81.6994 75.4948 83.8372 76.5909 85.0151C77.687 86.1929 79.641 86.7784 82.446 86.7784V89.1681C76.0735 88.8686 71.8319 88.712 69.7077 88.712C67.5835 88.712 63.0355 88.8618 56.057 89.1681V86.7784C59.2433 86.7784 61.4764 86.1929 62.77 85.0151C64.0568 83.8372 64.7036 81.6994 64.7036 78.588V42.9873C64.7036 39.5014 64.0568 36.9619 62.77 35.3688C61.4832 33.7757 59.2433 32.9791 56.057 32.9791V30.5894C58.4808 30.814 60.8364 30.9298 63.1104 30.9298C67.8899 30.9298 71.8319 30.3987 74.9365 29.3366V42.7558C76.8292 37.9015 79.464 34.3952 82.8409 32.237C86.211 30.0787 90.0237 28.9962 94.2721 28.9962C99.5758 28.9962 103.599 30.4396 106.33 33.3195V33.3263Z" fill="#BDF7FA"/>
<path d="M196.977 33.3263C198.414 34.8446 199.442 36.7373 200.048 39.0113C200.654 41.2852 200.96 44.3558 200.96 48.2229V78.588C200.96 81.6994 201.607 83.8372 202.894 85.0151C204.18 86.1929 206.42 86.7784 209.607 86.7784V89.1681C202.628 88.8686 198.08 88.712 195.956 88.712C193.832 88.712 189.583 88.8618 183.218 89.1681V86.7784C186.023 86.7784 187.977 86.1929 189.073 85.0151C190.169 83.8372 190.72 81.6994 190.72 78.588V45.7174C190.72 41.4691 190.114 38.2283 188.903 35.9952C187.691 33.762 185.226 32.6387 181.509 32.6387C178.397 32.6387 175.633 33.551 173.209 35.3688C170.779 37.1866 168.907 39.6717 167.579 42.8171C166.251 45.9625 165.591 49.4688 165.591 53.3359V78.588C165.591 81.6994 166.142 83.8372 167.238 85.0151C168.335 86.1929 170.289 86.7784 173.094 86.7784V89.1681C166.721 88.8686 162.479 88.712 160.355 88.712C158.231 88.712 153.683 88.8618 146.705 89.1681V86.7784C149.891 86.7784 152.124 86.1929 153.418 85.0151C154.704 83.8372 155.351 81.6994 155.351 78.588V42.9873C155.351 39.5014 154.704 36.9619 153.418 35.3688C152.131 33.7757 149.891 32.9791 146.705 32.9791V30.5894C149.128 30.814 151.484 30.9298 153.758 30.9298C158.537 30.9298 162.479 30.3987 165.584 29.3366V42.7558C167.477 37.9015 170.112 34.3952 173.489 32.237C176.859 30.0787 180.671 28.9962 184.92 28.9962C190.223 28.9962 194.247 30.4396 196.977 33.3195V33.3263Z" fill="#BDF7FA"/>
<path d="M241.951 86.3848C239.636 83.9951 238.479 80.6794 238.479 76.431C238.479 73.0201 239.405 70.215 241.263 68.0159C243.122 65.8168 245.321 64.0739 247.861 62.7871C250.4 61.5004 253.757 60.1319 257.923 58.6953C262.172 57.2588 265.317 55.9312 267.36 54.7125C269.409 53.5006 270.43 51.8666 270.43 49.8241V42.7707C270.43 38.3725 269.497 35.3632 267.646 33.7292C265.787 32.1021 263.193 31.2851 259.857 31.2851C254.546 31.2851 250.795 32.6467 248.596 35.3769C250.114 35.7581 251.381 36.5547 252.409 37.7666C253.43 38.9785 253.94 40.4967 253.94 42.3145C253.94 44.1324 253.334 45.7119 252.123 46.808C250.911 47.911 249.352 48.4556 247.459 48.4556C245.335 48.4556 243.742 47.7952 242.679 46.4676C241.617 45.14 241.086 43.5332 241.086 41.6337C241.086 39.7342 241.522 38.2976 242.394 37.0857C243.265 35.8739 244.572 34.662 246.315 33.4433C248.133 32.1565 250.448 31.0944 253.253 30.257C256.058 29.4264 259.128 29.0043 262.464 29.0043C268.381 29.0043 272.854 30.4068 275.884 33.2118C277.776 34.9547 279.05 37.0585 279.696 39.5231C280.343 41.9877 280.663 45.2285 280.663 49.2454V80.8632C280.663 82.7627 280.929 84.1244 281.46 84.955C281.991 85.7925 282.896 86.2078 284.19 86.2078C285.102 86.2078 285.953 85.9967 286.75 85.5814C287.546 85.1661 288.397 84.5806 289.31 83.818L290.562 85.7516C288.588 87.2699 286.899 88.3524 285.504 88.9924C284.101 89.6323 282.338 89.9591 280.214 89.9591C276.571 89.9591 274.032 89.0468 272.595 87.229C271.152 85.4112 270.437 82.9466 270.437 79.8352C268.163 83.6274 265.549 86.2622 262.587 87.7396C259.632 89.217 256.289 89.9591 252.579 89.9591C247.799 89.9591 244.259 88.7677 241.944 86.378L241.951 86.3848ZM270.444 76.7714V54.481C269.763 55.5431 268.81 56.4146 267.598 57.0954C266.386 57.7762 264.527 58.6885 262.022 59.8255C259.142 61.0374 256.807 62.1948 255.03 63.2978C253.246 64.4007 251.714 65.8985 250.421 67.7913C249.127 69.684 248.487 72.1145 248.487 75.0694C248.487 78.4803 249.318 81.0607 250.986 82.8036C252.654 84.5465 254.853 85.418 257.583 85.418C262.587 85.418 266.869 82.5381 270.437 76.7714H270.444Z" fill="#BDF7FA"/>
<path d="M335.041 30.7056H351.871V32.9796H335.041V76.9953C335.041 80.4063 335.667 82.8709 336.92 84.3892C338.173 85.9074 339.97 86.6631 342.319 86.6631C344.668 86.6631 346.677 85.7168 348.345 83.8173C350.013 81.9246 351.415 78.8132 352.552 74.4899L354.826 75.055C352.927 85.5193 348.004 90.7481 340.038 90.7481C337.458 90.7481 335.334 90.4418 333.673 89.8358C332.005 89.2299 330.527 88.2835 329.234 86.9899C327.566 85.3219 326.408 83.2726 325.768 80.8488C325.121 78.4251 324.801 75.1639 324.801 71.0653V32.966H313.881V30.692H324.801V13.2899C329.05 13.1401 332.461 12.6091 335.034 11.6968V30.692L335.041 30.7056Z" fill="#BDF7FA"/>
<path d="M429.105 75.5178C427.743 79.6913 425.183 83.2725 421.425 86.2682C417.667 89.2638 413.139 90.7617 407.836 90.7617C402.532 90.7617 397.786 89.5294 393.844 87.0647C389.902 84.6001 386.886 81.1483 384.803 76.7161C382.72 72.2771 381.678 67.1436 381.678 61.3021C381.678 54.7048 382.74 48.979 384.864 44.1315C386.988 39.2772 389.984 35.5462 393.851 32.9318C397.718 30.3174 402.225 29.0102 407.386 29.0102C414.208 29.0102 419.457 31.08 423.141 35.2058C426.817 39.3384 428.655 45.6157 428.655 54.0308H393.055C392.83 56.155 392.714 58.5787 392.714 61.3089C392.714 66.313 393.531 70.6771 395.158 74.3877C396.786 78.105 398.951 80.9645 401.64 82.973C404.329 84.9814 407.155 85.989 410.116 85.989C413.759 85.989 416.979 85.1176 419.784 83.3746C422.589 81.6317 424.938 78.7109 426.838 74.6191L429.112 75.5315L429.105 75.5178ZM397.718 36.3972C395.138 39.8831 393.545 45.0438 392.939 51.8657H417.735C417.885 45.9493 417.034 41.0269 415.175 37.0781C413.316 33.1361 410.566 31.1617 406.93 31.1617C403.294 31.1617 400.292 32.9046 397.718 36.3904V36.3972Z" fill="#BDF7FA"/>
<path d="M478.123 78.5884C478.123 81.6998 478.77 83.8376 480.057 85.0155C481.343 86.1933 483.583 86.7788 486.77 86.7788V89.1685C479.791 88.869 475.209 88.7124 473.01 88.7124C470.811 88.7124 466.222 88.8622 459.25 89.1685V86.7788C462.437 86.7788 464.67 86.1933 465.963 85.0155C467.25 83.8376 467.897 81.6998 467.897 78.5884V13.6507C467.897 10.1648 467.25 7.62532 465.963 6.03217C464.67 4.43902 462.437 3.64245 459.25 3.64245V1.25273C461.599 1.4774 463.948 1.59315 466.304 1.59315C471.083 1.59315 475.025 1.0621 478.13 0V78.5884H478.123Z" fill="#BDF7FA"/>
<path d="M534.183 78.5894C534.183 81.7008 534.823 83.8386 536.117 85.0165C537.403 86.1943 539.643 86.7798 542.83 86.7798V89.1696C535.851 88.87 531.269 88.7134 529.07 88.7134C526.871 88.7134 522.282 88.8632 515.31 89.1696V86.7798C518.497 86.7798 520.73 86.1943 522.023 85.0165C523.31 83.8386 523.957 81.7008 523.957 78.5894V42.9887C523.957 39.5029 523.31 36.9634 522.023 35.3702C520.737 33.7771 518.497 32.9805 515.31 32.9805V30.5908C517.734 30.8155 520.09 30.9312 522.364 30.9312C527.143 30.9312 531.085 30.4002 534.19 29.3381V78.5826L534.183 78.5894ZM533.393 4.32431C534.83 5.76768 535.551 7.46976 535.551 9.44417C535.551 11.4186 534.83 13.1207 533.393 14.564C531.95 16.0074 530.248 16.7223 528.273 16.7223C526.299 16.7223 524.597 16.0006 523.153 14.564C521.71 13.1275 520.995 11.4186 520.995 9.44417C520.995 7.46976 521.717 5.76768 523.153 4.32431C524.59 2.88776 526.299 2.16608 528.273 2.16608C530.248 2.16608 531.95 2.88776 533.393 4.32431Z" fill="#BDF7FA"/>
<path d="M620.74 75.5178C619.379 79.6913 616.819 83.2725 613.06 86.2682C609.302 89.2638 604.775 90.7617 599.471 90.7617C594.167 90.7617 589.422 89.5294 585.48 87.0647C581.538 84.6001 578.522 81.1483 576.438 76.7161C574.355 72.2771 573.313 67.1436 573.313 61.3021C573.313 54.7048 574.376 48.979 576.5 44.1315C578.624 39.2772 581.62 35.5462 585.487 32.9318C589.354 30.3174 593.861 29.0102 599.022 29.0102C605.844 29.0102 611.093 31.08 614.776 35.2058C618.453 39.3384 620.291 45.6157 620.291 54.0308H584.69C584.465 56.155 584.35 58.5787 584.35 61.3089C584.35 66.313 585.167 70.6771 586.794 74.3877C588.421 78.105 590.586 80.9645 593.275 82.973C595.965 84.9814 598.79 85.989 601.752 85.989C605.394 85.989 608.615 85.1176 611.42 83.3746C614.225 81.6317 616.573 78.7109 618.473 74.6191L620.747 75.5315L620.74 75.5178ZM589.347 36.3972C586.767 39.8831 585.174 45.0438 584.568 51.8657H609.363C609.513 45.9493 608.662 41.0269 606.804 37.0781C604.945 33.1361 602.194 31.1617 598.559 31.1617C594.923 31.1617 591.921 32.9046 589.347 36.3904V36.3972Z" fill="#BDF7FA"/>
<path d="M694.495 31.6174C696.428 33.3603 697.395 35.4845 697.395 37.9832C697.395 39.9576 696.81 41.6393 695.632 43.0418C694.454 44.4443 692.881 45.1455 690.914 45.1455C689.246 45.1455 687.823 44.6145 686.652 43.5524C685.474 42.4903 684.888 41.0469 684.888 39.2291C684.888 36.7237 686.175 34.6812 688.755 33.088C688.224 32.3323 687.428 31.951 686.366 31.951C683.411 31.951 680.715 33.1084 678.291 35.4233C675.86 37.7381 673.968 40.5635 672.606 43.8928C671.244 47.2289 670.557 50.3743 670.557 53.3359V77.451C670.557 80.9369 671.558 83.3674 673.573 84.7291C675.581 86.0908 678.597 86.7784 682.614 86.7784V89.1681L679.884 89.0524C672.15 88.8277 667.221 88.712 665.096 88.712C663.122 88.712 658.649 88.8618 651.677 89.1681V86.7784C654.864 86.7784 657.097 86.1929 658.39 85.0151C659.677 83.8372 660.324 81.6994 660.324 78.588V42.9873C660.324 39.5014 659.677 36.9619 658.39 35.3688C657.103 33.7757 654.864 32.9791 651.677 32.9791V30.5894C654.101 30.814 656.457 30.9298 658.731 30.9298C663.51 30.9298 667.452 30.3987 670.557 29.3366V43.5524C671.918 39.7602 674.097 36.39 677.1 33.4284C680.095 30.4736 683.411 28.9962 687.053 28.9962C690.083 28.9962 692.568 29.8677 694.502 31.6106L694.495 31.6174Z" fill="#BDF7FA"/>
</svg>
